<svg width="160" height="50" viewBox="0 0 160 50" xmlns="http://www.w3.org/2000/svg" preserveAspectRatio="xMidYMid meet">
  <defs>
    <linearGradient id="leftGradient" x1="0%" y1="0%" x2="100%" y2="0%">
      <stop offset="0%" style="stop-color:#FF6B4A;stop-opacity:1" />
      <stop offset="70%" style="stop-color:#FFB5A0;stop-opacity:1" />
      <stop offset="100%" style="stop-color:#FFFFFF;stop-opacity:0.8" />
    </linearGradient>
    <linearGradient id="rightGradient" x1="0%" y1="0%" x2="100%" y2="0%">
      <stop offset="0%" style="stop-color:#FFFFFF;stop-opacity:0.8" />
      <stop offset="30%" style="stop-color:#C4B5FD;stop-opacity:1" />
      <stop offset="100%" style="stop-color:#8B5CF6;stop-opacity:1" />
    </linearGradient>
  </defs>
  
  <!-- Infinity symbol - more refined -->
  <!-- Left loop -->
  <path d="M 25 25 Q 15 15, 25 10 Q 30 8, 35 10 Q 40 12, 40 25 Q 40 38, 35 40 Q 30 42, 25 40 Q 15 40, 25 25" 
        fill="none" 
        stroke="url(#leftGradient)" 
        stroke-width="2.5" 
        stroke-linecap="round"/>
  
  <!-- Right loop -->
  <path d="M 40 25 Q 50 15, 60 10 Q 65 8, 70 10 Q 75 12, 75 25 Q 75 38, 70 40 Q 65 42, 60 40 Q 50 40, 40 25" 
        fill="none" 
        stroke="url(#rightGradient)" 
        stroke-width="2.5" 
        stroke-linecap="round"/>
  
  <!-- Text: dis_ident -->
  <text x="50" y="38" font-family="Inter, sans-serif" font-size="14" font-weight="700" fill="#2C2C2C" text-anchor="middle" letter-spacing="-0.3px">dis_ident</text>
</svg>
